<?xml version="1.0" encoding="utf-8"?>
<!-- Generator: Adobe Illustrator 18.0.0, SVG Export Plug-In . SVG Version: 6.00 Build 0)  -->
<!DOCTYPE svg PUBLIC "-//W3C//DTD SVG 1.1//EN" "http://www.w3.org/Graphics/SVG/1.1/DTD/svg11.dtd">
<svg version="1.1" id="Layer_1" xmlns="http://www.w3.org/2000/svg" xmlns:xlink="http://www.w3.org/1999/xlink" x="0px" y="0px"
	 viewBox="6 134.8 599.8 528.2" enable-background="new 6 134.8 599.8 528.2" xml:space="preserve">
<path fill="#8B8B8B" d="M314.4,138.8c1.5,5.5,2.7,11.2,4.3,16.7c5.6,20.4,10.8,41,19.4,60.4c4.2,8.8,9.2,17.8,17.7,23.1
	c6.6,4.2,14.8,4.6,22.3,3.3c9.5-1.7,18.4-5.4,27.2-9.4c28.9-13.8,56.4-30.5,84.3-46.1c4.7-2.6,7.5-0.5,6.2,4.8
	c-4.8,19.7-10.1,39.3-14.3,59.1c-2.2,11.4-4.4,23.1-3.5,34.7c0.6,7.6,3.8,15.4,10.3,19.8c8.5,5.9,19.3,7.4,29.5,8.3
	c27.7,1.9,55.6-0.4,83.3-1.6c5.3-0.3,6.4,2.4,2.2,5.8c-9.2,7.6-18.7,14.7-27.9,22.4c-11.5,9.7-23.5,19.1-33.2,30.6
	c-5.5,6.7-10.7,15.2-8.4,24.2c2.4,9.7,9.9,17,16.7,23.8c15,14.2,31.2,27.1,46.8,40.4c1.6,1.6,3.4,2.8,5.1,4.3
	c2.9,2.3,0.4,5.2-4.9,5.8c-11.7,1.4-23.5,2.5-35.1,4c-15.8,2.4-32.5,5.7-45.2,16.3c-10.6,8.7-15.5,22.5-16.3,35.9
	c-0.7,10.3,0.4,20.5,2.1,30.6c0.9,5.2-2.3,8.4-7.6,7.1c-8.7-2.2-17.6-4.3-26.4-5.8c-5.2-1-12.1,2-15.3,6.3
	c-4.5,5.8-9.2,11.5-14.4,16.8c-1.8,2.1-3.9,4.1-5.9,5.9c-3.4,3.2-1.6,5.6,3.7,6c10.2,0.7,20.3,3.2,28.8,9c6.1,4.2,11.4,11,10.7,18.8
	c-0.8,8.2-7.5,14.5-14.4,18.2c-12.9,6.8-28.2,8.2-42.5,5.8c-9.3-1.7-18.6-5.2-25.4-11.9c-1.7-1.7-3.2-3.7-4.3-5.9
	c-1.7-3.6-4-6.2-6.4-5c-2.4,1.2-1.9,4.9-0.3,9.2c1,2.5,1.5,5.2,1.1,8.1c-1.2,8.4-8.2,14.5-15.4,18.1c-5.7,3-11.8,4.6-18.1,5.6
	c-5.2,0.9-14,0.9-19.2,0.2c-5.2-0.7-10.4-1.7-15.3-3.7c-5-2-10.2-4.8-14.1-8.7c-3.8-3.8-9.6-8.2-14.9-8.5c-0.1,0-0.2,0-0.2,0
	c-5.3-0.2-12.5,2.9-17,5.8c-7.1,4.7-15.6,7.1-24.1,8.1c-13.9,1.6-28.7-0.4-40.7-7.9c-6.1-3.9-11.7-10-11.9-17.7
	c-0.1-2.5,0.5-4.9,1.5-7.3c1.6-3.8,0.2-8.4-4.4-11.3c-10.1-6.4-19.6-13.7-28.4-21.8c-4-3.6-2.8-5.3,2.5-4.8
	c10.2,1.1,20.8-0.8,29.8-5.7c8.1-4.3,14.8-10.7,19.6-18.4c2.8-4.6,7.3-5.4,11.3-1.8c9.6,8.7,20.8,15.8,33,20.2
	c22.2,8.1,47.3,8.1,69.4-0.4c15.1-5.7,28.9-15.3,39.6-27.5c14.3-16.3,23-37.2,24.2-58.9c1.1-16.6-2.1-33.5-9.3-48.5
	c-9.7-20.8-26.9-37.8-47.7-47.5c-15.3-7.3-32.5-10.4-49.4-9.1c-24.4,1.7-47.9,13-64.7,30.8c-15.1,15.9-24.7,37-26.7,58.8
	c-0.2,1.8-0.3,3.6-0.3,5.4c-0.1,3-4.2,3.5-9.3,2.1c-8.8-2.4-18.1-2.6-27-0.2c-14.5,3.8-27.2,14.4-33.5,28.1
	c-6.9,14.5-6.2,32.4,1.7,46.5c1.3,2.5,2.9,4.8,4.7,6.9c2.9,3.6,1.2,6.6-4.2,6.9c-12.3,0.8-24.7,1.5-37,2.8c-5.3,0.6-7-2.2-3.8-6.5
	c8.5-11.5,16.3-23.9,20.2-37.8c3.1-11.1,2.9-23.4-2.8-33.6c-6.9-12.4-19.4-20.5-32.1-26.2c-19.1-8.4-39.6-12.8-60.1-15.9
	c-5.3-0.8-5.7-3.4-1-5.7c17-8.3,34.3-16.2,51.2-24.6c9.4-4.8,19-9.6,27.2-16.5c4.6-3.9,8.8-9,9.4-15.3c0.7-6.7-2.6-12.9-6.2-18.2
	c-5.6-8.1-12.5-15.2-19.8-21.9c-18.7-17.7-39.1-33.4-59.2-49.5c-4.2-3.3-3.3-5.2,1.9-4c8.9,2,17.7,4.4,26.7,6.3
	c19.4,4.2,38.7,9.1,58.5,10.3c8.6,0.4,18,0.3,25.4-4.8c6.2-4.3,8.7-11.9,9.7-19.1c1.2-9.6,0.7-19.4-0.1-29
	c-2.5-26.9-6.6-53.6-9.8-80.4c-0.7-5.3,2.4-7.2,6.9-4.3c20.9,14.1,41.7,28.2,63.1,41.5c11.1,6.4,22.1,13.1,34.5,16.4
	c7.2,1.9,15.1,2.2,22-0.9c7.9-3.5,13.8-10.1,18.7-17c5.8-8.4,10.8-17.5,15-26.8c8.4-17.5,15.9-35.4,23.4-53.3
	C310.1,133.5,313.1,133.5,314.4,138.8z"/>
<path fill="#8B8B8B" d="M289.7,406.9c17.5,0,35,5.6,48.9,16.3c16,12,27.3,30.3,30.6,49.9c2.7,13.4,1.1,27.4-3,40.3
	c-6.5,19.2-20.6,35.7-38.6,45.1c-14.9,8.1-32.6,10.9-49.4,8.5c-20.8-3.2-40.3-14.5-52.6-31.6c8.4,5.8,19,8.3,29.2,6.5
	c13.3-2.1,25.1-11.6,30.1-24.2c3.2-8.5,4-18.2,1-27c-3.4-11-11.9-20.1-22.5-24.4c-8.6-3.4-18.4-4-27.3-1.2
	c-12.6,4-23.2,14.8-26,27.9c-1.3-6.8-0.2-13.9,1-20.6c3-17.9,12.7-34.4,26.5-46.3C251.8,413.9,270.7,407,289.7,406.9z"/>
<path fill="#8B8B8B" d="M137.9,528.9c1.8-16.3,16.3-30,32.7-30.6c9.5-0.8,19,2.7,26.1,9c-6-2-12.9-2.1-18.6,0.9
	c-8.1,3.9-13.6,12.8-13,21.8c0.1,11.6,10.4,22.2,22.1,22.2c7.5,0.6,14.6-3,19.4-8.6c-4.1,18-25,29.5-42.6,24.3
	C147.2,563.8,135.2,546,137.9,528.9z"/>
</svg>
