<?xml version="1.0" encoding="utf-8"?>
<!-- Generator: Adobe Illustrator 18.0.0, SVG Export Plug-In . SVG Version: 6.00 Build 0)  -->
<!DOCTYPE svg PUBLIC "-//W3C//DTD SVG 1.1//EN" "http://www.w3.org/Graphics/SVG/1.1/DTD/svg11.dtd">
<svg version="1.1" id="Layer_1" xmlns="http://www.w3.org/2000/svg" xmlns:xlink="http://www.w3.org/1999/xlink" x="0px" y="0px"
	 viewBox="0 0 64 64" enable-background="new 0 0 64 64" xml:space="preserve">
<g>
	<polygon fill="#009444" points="24.4,37.6 26.9,53.4 36.6,53.4 36.6,36.4 59.2,12.9 5.7,12.9 	"/>
	<g>
		<path fill="#8DC63F" d="M21.9,38c0.8,5.3,1.7,10.5,2.5,15.8c0.2,1,1,1.9,2.1,1.9c3.2,0,6.5,0,9.7,0c1.6,0,2.8-1.1,2.8-2.7
			c0-4.4,0-8.8,0-13.1c0-0.9,0-1.8,0-2.8c0-1.9,0,0-0.4,0.5c1.1-1.1,2.2-2.3,3.3-3.4c6.4-6.7,12.8-13.3,19.2-20
			c1.2-1.3,0.2-3.5-1.6-3.5c-17.8,0-35.7,0-53.5,0c-1.9,0-3.7,2-2.4,3.8c6.2,8.2,12.5,16.5,18.7,24.7c1.7,2.3,5.8-0.6,3.9-3
			c-6.2-8.2-12.5-16.5-18.7-24.7c-0.8,1.3-1.6,2.5-2.4,3.8c17.8,0,35.7,0,53.5,0c-0.5-1.2-1-2.4-1.6-3.5c-6.7,7-13.4,14-20.2,21
			c-2.2,2.3-3,3.2-3,6.5c0,4.9,0,9.8,0,14.7c0.9-0.9,1.9-1.8,2.8-2.7c-3.2,0-6.5,0-9.7,0c0.7,0.6,1.4,1.2,2.1,1.9
			c-0.8-5.3-1.7-10.5-2.5-15.8C26.3,34.2,21.5,35.2,21.9,38z"/>
	</g>
</g>
</svg>
