<?xml version="1.0" encoding="utf-8"?>
<!-- Generator: Adobe Illustrator 17.0.0, SVG Export Plug-In . SVG Version: 6.00 Build 0)  -->
<!DOCTYPE svg PUBLIC "-//W3C//DTD SVG 1.0//EN" "http://www.w3.org/TR/2001/REC-SVG-20010904/DTD/svg10.dtd">
<svg version="1.0" id="Layer_1" xmlns="http://www.w3.org/2000/svg" xmlns:xlink="http://www.w3.org/1999/xlink" x="0px" y="0px"
	 width="631px" height="552px" viewBox="0 0 631 552" enable-background="new 0 0 631 552" xml:space="preserve">
<path fill="#8B8B8B" d="M321.38,1.19c3.01,8.75,4.74,17.91,7.26,26.83c5.84,21,11.08,42.32,20.05,62.27
	c4.27,9.07,9.54,18.36,18.25,23.84c6.8,4.27,15.27,4.74,23,3.38c9.77-1.76,19.03-5.55,28.01-9.68
	c32.85-15.65,63.79-34.91,95.7-52.32c-5.48,23.6-12.07,46.95-17.06,70.66c-2.3,11.77-4.54,23.76-3.59,35.8
	c0.6,7.84,3.92,15.86,10.57,20.43c8.84,6.15,19.89,7.57,30.35,8.6c31.97,2.23,63.97-0.96,95.91-2.18
	c-11.82,10.21-24.41,19.54-36.46,29.49c-11.88,10-24.17,19.72-34.24,31.61c-5.74,6.86-10.96,15.73-8.71,25
	c2.55,9.96,10.15,17.47,17.19,24.52c15.51,14.57,32.16,27.85,48.33,41.66c3.28,3.17,7.5,5.45,10.11,9.24
	c-15.37,1.9-30.79,3.29-46.14,5.28c-16.32,2.45-33.55,5.91-46.57,16.75c-10.89,9.02-15.96,23.23-16.79,37.02
	c-0.96,13.9,1.25,27.77,4.08,41.34c-15.42-4.11-30.95-7.91-46.78-10.07c-6.41,8.86-13.12,17.53-20.79,25.34
	c-3.85,4.32-8.36,7.97-12.34,12.16c13.71-0.52,28.15,1.58,39.73,9.42c6.32,4.27,11.83,11.3,11.05,19.35
	c-0.78,8.53-7.71,14.91-14.84,18.78c-13.31,7.05-29.09,8.47-43.78,5.99c-9.57-1.77-19.22-5.38-26.23-12.34
	c-3.59-3.51-6-8.21-6.31-13.26c-3.18,1.2-6.19,2.78-9.26,4.22c3.4,4.42,6.3,9.78,5.4,15.56c-1.21,8.66-8.48,14.9-15.87,18.67
	c-8.83,4.68-18.88,5.87-28.63,7.16c-8.66-1.09-17.54-1.68-25.71-5.04c-8.26-3.28-16.68-8.57-19.9-17.29
	c-6.74-0.4-13.48-0.49-20.21-0.99c-8.06,9.27-20.41,13.42-32.28,14.86c-14.33,1.59-29.59-0.41-42.02-8.09
	c-6.33-3.99-12.12-10.35-12.34-18.21c-0.24-5.25,2.42-9.99,5.64-13.91c-16.51-9.41-31.72-21.06-45.08-34.57
	c13.34,4.04,28.23,2.75,40.52-3.89c11.25-5.93,20.06-16.08,24.68-27.9c11.38,12.21,25.34,22.14,41.1,27.83
	c22.87,8.44,48.84,8.44,71.6-0.42c15.65-5.91,29.78-15.79,40.76-28.41c14.66-16.76,23.69-38.42,25.01-60.66
	c1.11-17.13-2.2-34.52-9.61-50.01c-10.03-21.37-27.74-39.03-49.16-48.96c-15.76-7.49-33.48-10.72-50.87-9.39
	c-25.17,1.76-49.43,13.44-66.68,31.81c-15.57,16.4-25.49,38.09-27.52,60.63c-0.33,3.74-0.35,7.5-0.6,11.26
	c-11.51-5.37-24.85-7.01-37.17-3.63c-15.04,3.9-28.01,14.83-34.46,28.95c-7.06,15.03-6.37,33.39,1.77,47.85
	c2.68,5.11,6.63,9.34,10.45,13.6c-19.37,1.35-38.81,2.06-58.06,4.79c11.02-14.29,21.94-29.35,26.84-46.99
	c3.24-11.36,3.02-24.15-2.91-34.61c-7.11-12.83-20.02-21.1-33.05-27.01c-22.73-10.05-47.43-14.47-71.9-17.79
	c20.35-10.4,41.31-19.64,61.74-29.91c9.7-5.02,19.63-9.91,28.03-16.99c4.72-4.05,9.11-9.32,9.67-15.75
	c0.65-6.85-2.66-13.28-6.37-18.79c-5.79-8.36-12.93-15.7-20.37-22.59c-21.73-20.47-45.57-38.5-68.75-57.24
	c12.49,2.51,24.79,5.95,37.25,8.65c19.95,4.3,39.87,9.37,60.32,10.59c8.86,0.4,18.56,0.27,26.17-4.92
	c6.38-4.42,9.03-12.31,9.99-19.68c1.16-9.93,0.67-19.96-0.15-29.89c-2.96-31.05-7.78-61.87-11.32-92.85
	c24.33,16.3,48.47,32.93,73.37,48.38c11.36,6.59,22.78,13.52,35.58,16.93c7.4,1.98,15.57,2.27,22.68-0.93
	c8.13-3.59,14.23-10.43,19.3-17.54c6.04-8.67,11.06-18.01,15.55-27.57C303.69,44.41,312.47,22.76,321.38,1.19z"/>
<path fill="#8B8B8B" d="M283.22,288.748c17.691-3.339,36.504-1.007,52.622,7.128c18.545,9.085,33.424,25.404,40.677,44.745
	c5.286,13.067,6.361,27.486,4.643,41.387c-2.907,20.713-13.997,40.15-30.431,53.101c-13.633,11.033-30.921,17.25-48.381,18.132
	c-21.595,0.739-43.613-7.032-59.366-21.931c9.651,4.269,20.886,4.816,30.777,1.007c13.086-4.682,23.198-16.578,25.855-30.211
	c1.593-9.296,0.528-19.255-4.192-27.534c-5.555-10.419-15.926-18.036-27.467-20.415c-9.383-1.756-19.408-0.547-27.822,4.097
	c-12.05,6.505-20.674,19.475-21.02,33.3c-2.6-6.677-2.878-13.959-2.945-21.029c-0.413-18.727,6.313-37.339,17.902-51.969
	C246.198,303.168,264.004,292.48,283.22,288.748z"/>
<path fill="#8B8B8B" d="M142.16,413c1.91-16.75,16.84-30.87,33.72-31.61c9.78-0.79,19.59,2.83,26.92,9.26
	c-6.2-2.09-13.31-2.2-19.22,0.85c-8.38,3.97-14.04,13.2-13.35,22.51c0.08,11.99,10.74,22.94,22.82,22.89
	c7.67,0.62,15.08-3.11,19.97-8.89c-4.23,18.58-25.75,30.43-43.88,25.09C151.77,448.96,139.35,430.69,142.16,413z"/>
</svg>
