<?xml version="1.0" encoding="utf-8"?>
<!-- Generator: Adobe Illustrator 18.0.0, SVG Export Plug-In . SVG Version: 6.00 Build 0)  -->
<!DOCTYPE svg PUBLIC "-//W3C//DTD SVG 1.1//EN" "http://www.w3.org/Graphics/SVG/1.1/DTD/svg11.dtd">
<svg version="1.1" id="Layer_1" xmlns="http://www.w3.org/2000/svg" xmlns:xlink="http://www.w3.org/1999/xlink" x="0px" y="0px"
	 viewBox="0 0 631 552" enable-background="new 0 0 631 552" xml:space="preserve">
<path fill="#8B8B8B" d="M324.2,10.8c1.5,5.7,2.8,11.5,4.4,17.2c5.8,21,11.1,42.3,20,62.3c4.3,9.1,9.5,18.4,18.2,23.8
	c6.8,4.3,15.3,4.7,23,3.4c9.8-1.8,19-5.6,28-9.7c29.8-14.2,58.1-31.4,86.9-47.5c4.8-2.7,7.7-0.5,6.4,4.9
	c-4.9,20.3-10.4,40.5-14.7,60.9c-2.3,11.8-4.5,23.8-3.6,35.8c0.6,7.8,3.9,15.9,10.6,20.4c8.8,6.1,19.9,7.6,30.4,8.6
	c28.6,2,57.3-0.4,85.9-1.7c5.5-0.3,6.6,2.5,2.3,6c-9.5,7.8-19.3,15.2-28.8,23.1c-11.9,10-24.2,19.7-34.2,31.6
	c-5.7,6.9-11,15.7-8.7,25c2.5,10,10.2,17.5,17.2,24.5c15.5,14.6,32.2,27.9,48.3,41.7c1.6,1.6,3.5,2.9,5.3,4.4c3,2.4,0.4,5.4-5.1,6
	c-12.1,1.4-24.2,2.6-36.2,4.1c-16.3,2.5-33.5,5.9-46.6,16.8c-10.9,9-16,23.2-16.8,37c-0.7,10.6,0.4,21.1,2.2,31.5
	c0.9,5.4-2.4,8.7-7.8,7.3c-9-2.3-18.1-4.4-27.2-6c-5.4-1-12.5,2.1-15.8,6.5c-4.6,6-9.5,11.9-14.8,17.3c-1.9,2.2-4,4.2-6.1,6.1
	c-3.5,3.3-1.7,5.8,3.8,6.2c10.5,0.7,20.9,3.3,29.7,9.3c6.3,4.3,11.8,11.3,11,19.4c-0.8,8.5-7.7,14.9-14.8,18.8
	c-13.3,7-29.1,8.5-43.8,6c-9.6-1.8-19.2-5.4-26.2-12.3c-1.8-1.8-3.3-3.8-4.4-6.1c-1.8-3.7-4.1-6.4-6.6-5.2c-2.5,1.2-2,5.1-0.3,9.5
	c1,2.6,1.5,5.4,1.1,8.3c-1.2,8.7-8.5,14.9-15.9,18.7c-5.9,3.1-12.2,4.7-18.7,5.8c-5.4,0.9-14.4,0.9-19.8,0.2
	c-5.4-0.7-10.7-1.8-15.8-3.8c-5.2-2.1-10.5-4.9-14.5-9c-3.9-3.9-9.9-8.5-15.4-8.8c-0.1,0-0.2,0-0.2,0c-5.5-0.2-12.9,3-17.5,6
	c-7.3,4.8-16.1,7.3-24.8,8.3c-14.3,1.6-29.6-0.4-42-8.1c-6.3-4-12.1-10.3-12.3-18.2c-0.1-2.6,0.5-5.1,1.5-7.5
	c1.7-3.9,0.2-8.7-4.5-11.6c-10.4-6.6-20.2-14.1-29.3-22.5c-4.1-3.7-2.9-5.5,2.6-5c10.5,1.1,21.4-0.8,30.7-5.9
	c8.3-4.4,15.3-11,20.2-19c2.9-4.7,7.5-5.6,11.6-1.9c9.9,9,21.4,16.3,34,20.8c22.9,8.4,48.8,8.4,71.6-0.4
	c15.6-5.9,29.8-15.8,40.8-28.4c14.7-16.8,23.7-38.4,25-60.7c1.1-17.1-2.2-34.5-9.6-50c-10-21.4-27.7-39-49.2-49
	c-15.8-7.5-33.5-10.7-50.9-9.4c-25.2,1.8-49.4,13.4-66.7,31.8c-15.6,16.4-25.5,38.1-27.5,60.6c-0.2,1.9-0.3,3.7-0.3,5.6
	c-0.1,3.1-4.3,3.6-9.6,2.2c-9.1-2.5-18.7-2.7-27.8-0.2c-15,3.9-28,14.8-34.5,29c-7.1,15-6.4,33.4,1.8,47.9c1.3,2.6,3,4.9,4.8,7.1
	c3,3.7,1.2,6.8-4.3,7.1c-12.7,0.8-25.5,1.5-38.2,2.9c-5.5,0.6-7.2-2.3-3.9-6.7c8.8-11.9,16.8-24.6,20.8-39c3.2-11.4,3-24.1-2.9-34.6
	c-7.1-12.8-20-21.1-33.1-27c-19.7-8.7-40.8-13.2-62-16.4c-5.5-0.8-5.9-3.5-1-5.9c17.5-8.6,35.4-16.7,52.8-25.4c9.7-5,19.6-9.9,28-17
	c4.7-4,9.1-9.3,9.7-15.8c0.7-6.9-2.7-13.3-6.4-18.8c-5.8-8.4-12.9-15.7-20.4-22.6c-19.3-18.2-40.3-34.4-61-51
	c-4.3-3.4-3.4-5.4,2-4.1c9.2,2.1,18.3,4.5,27.5,6.5c20,4.3,39.9,9.4,60.3,10.6c8.9,0.4,18.6,0.3,26.2-4.9c6.4-4.4,9-12.3,10-19.7
	c1.2-9.9,0.7-20-0.1-29.9c-2.6-27.7-6.8-55.3-10.1-82.9c-0.7-5.5,2.5-7.4,7.1-4.4c21.5,14.5,43,29.1,65.1,42.8
	c11.4,6.6,22.8,13.5,35.6,16.9c7.4,2,15.6,2.3,22.7-0.9c8.1-3.6,14.2-10.4,19.3-17.5c6-8.7,11.1-18,15.5-27.6
	c8.7-18,16.4-36.5,24.1-55C319.7,5.3,322.8,5.4,324.2,10.8z"/>
<path fill="#8B8B8B" d="M298.7,287.2c18,0,36.1,5.8,50.4,16.8c16.5,12.4,28.1,31.2,31.6,51.5c2.8,13.8,1.1,28.2-3.1,41.5
	c-6.7,19.8-21.2,36.8-39.8,46.5c-15.4,8.3-33.6,11.2-50.9,8.8c-21.4-3.3-41.5-15-54.2-32.6c8.7,6,19.6,8.6,30.1,6.7
	c13.7-2.2,25.9-12,31-24.9c3.3-8.8,4.1-18.8,1-27.8c-3.5-11.3-12.3-20.7-23.2-25.2c-8.9-3.5-19-4.1-28.1-1.2
	c-13,4.1-23.9,15.3-26.8,28.8c-1.3-7-0.2-14.3,1-21.2c3.1-18.5,13.1-35.5,27.3-47.7C259.6,294.5,279.1,287.3,298.7,287.2z"/>
<path fill="#8B8B8B" d="M142.2,413c1.9-16.8,16.8-30.9,33.7-31.6c9.8-0.8,19.6,2.8,26.9,9.3c-6.2-2.1-13.3-2.2-19.2,0.9
	c-8.4,4-14,13.2-13.4,22.5c0.1,12,10.7,22.9,22.8,22.9c7.7,0.6,15.1-3.1,20-8.9c-4.2,18.6-25.8,30.4-43.9,25.1
	C151.8,449,139.4,430.7,142.2,413z"/>
</svg>
